HIERARCHY
ROOT Bip01
{
  OFFSET 15.7446 31.5610 57.6474
  CHANNELS 6 Xposition Yposition Zposition Zrotation Xrotation Yrotation
  JOINT Bip01_Footsteps
  {
    OFFSET 53.2821 -0.0001 8.1953
    CHANNELS 6 Xposition Yposition Zposition Zrotation Xrotation Yrotation
    End Site
    {
      OFFSET 0 0 0
    }
  }
  JOINT b_Hips
  {
    OFFSET 0.0000 0.0000 0.0000
    CHANNELS 6 Xposition Yposition Zposition Zrotation Xrotation Yrotation
    JOINT b_Spine
    {
      OFFSET 10.4409 -1.6220 0.0000
      CHANNELS 6 Xposition Yposition Zposition Zrotation Xrotation Yrotation
      JOINT b_Spine1
      {
        OFFSET 8.8514 -0.0090 0.0000
        CHANNELS 6 Xposition Yposition Zposition Zrotation Xrotation Yrotation
        JOINT b_Spine2
        {
          OFFSET 11.3035 -0.0088 -0.0000
          CHANNELS 6 Xposition Yposition Zposition Zrotation Xrotation Yrotation
          JOINT b_Spine3
          {
            OFFSET 11.0297 -0.0113 0.0000
            CHANNELS 6 Xposition Yposition Zposition Zrotation Xrotation Yrotation
            JOINT b__Neck
            {
              OFFSET 14.9480 -3.1935 0.0000
              CHANNELS 6 Xposition Yposition Zposition Zrotation Xrotation Yrotation
              JOINT b__Neck1
              {
                OFFSET 5.4958 -0.0043 0.0000
                CHANNELS 6 Xposition Yposition Zposition Zrotation Xrotation Yrotation
                JOINT b__Neck2
                {
                  OFFSET 5.5266 -0.0049 0.0000
                  CHANNELS 6 Xposition Yposition Zposition Zrotation Xrotation Yrotation
                  JOINT b_Head
                  {
                    OFFSET 6.1093 0.0000 0.0000
                    CHANNELS 6 Xposition Yposition Zposition Zrotation Xrotation Yrotation
                    JOINT Bip01_HeadNub
                    {
                      OFFSET 28.6688 0.0000 -0.0000
                      CHANNELS 6 Xposition Yposition Zposition Zrotation Xrotation Yrotation
                      End Site
                      {
                        OFFSET 0 0 0
                      }
                    }
                    JOINT Dog_Jaw
                    {
                      OFFSET 0.6075 2.3575 -0.0000
                      CHANNELS 6 Xposition Yposition Zposition Zrotation Xrotation Yrotation
                      End Site
                      {
                        OFFSET 0 0 0
                      }
                    }
                  }
                }
              }
            }
            JOINT b_LeftClav
            {
              OFFSET 10.4683 2.1257 3.5190
              CHANNELS 6 Xposition Yposition Zposition Zrotation Xrotation Yrotation
              JOINT b_LeftArm
              {
                OFFSET 7.3453 0.0000 0.0000
                CHANNELS 6 Xposition Yposition Zposition Zrotation Xrotation Yrotation
                JOINT b_LeftForeArm
                {
                  OFFSET 23.3863 -0.0000 0.0000
                  CHANNELS 6 Xposition Yposition Zposition Zrotation Xrotation Yrotation
                  JOINT b_LeftHand
                  {
                    OFFSET 21.5040 0.0000 0.0000
                    CHANNELS 6 Xposition Yposition Zposition Zrotation Xrotation Yrotation
                    JOINT b__LeftFinger
                    {
                      OFFSET 1.5926 6.2126 -0.0138
                      CHANNELS 6 Xposition Yposition Zposition Zrotation Xrotation Yrotation
                      JOINT Bip01_L_Finger0Nub
                      {
                        OFFSET 23.3657 0.0000 0.0000
                        CHANNELS 6 Xposition Yposition Zposition Zrotation Xrotation Yrotation
                        End Site
                        {
                          OFFSET 0 0 0
                        }
                      }
                    }
                  }
                }
                JOINT Dog_LeftArmor002
                {
                  OFFSET 4.2035 4.4457 12.7354
                  CHANNELS 6 Xposition Yposition Zposition Zrotation Xrotation Yrotation
                  End Site
                  {
                    OFFSET 0 0 0
                  }
                }
              }
            }
            JOINT b_RightClav
            {
              OFFSET 10.4683 2.1257 -3.5189
              CHANNELS 6 Xposition Yposition Zposition Zrotation Xrotation Yrotation
              JOINT b_RightArm
              {
                OFFSET 7.3453 -0.0000 -0.0000
                CHANNELS 6 Xposition Yposition Zposition Zrotation Xrotation Yrotation
                JOINT b_RightForeArm
                {
                  OFFSET 23.3863 0.0000 0.0000
                  CHANNELS 6 Xposition Yposition Zposition Zrotation Xrotation Yrotation
                  JOINT b_RightHand
                  {
                    OFFSET 21.5040 0.0000 0.0000
                    CHANNELS 6 Xposition Yposition Zposition Zrotation Xrotation Yrotation
                    JOINT b_RightFinger
                    {
                      OFFSET 1.5926 6.2126 0.0138
                      CHANNELS 6 Xposition Yposition Zposition Zrotation Xrotation Yrotation
                      JOINT Bip01_R_Finger0Nub
                      {
                        OFFSET 23.3657 0.0000 0.0000
                        CHANNELS 6 Xposition Yposition Zposition Zrotation Xrotation Yrotation
                        End Site
                        {
                          OFFSET 0 0 0
                        }
                      }
                    }
                  }
                }
                JOINT Dog_RightArmor002
                {
                  OFFSET 4.2034 4.4457 -12.7351
                  CHANNELS 6 Xposition Yposition Zposition Zrotation Xrotation Yrotation
                  End Site
                  {
                    OFFSET 0 0 0
                  }
                }
              }
            }
          }
        }
      }
    }
    JOINT b_Tail001
    {
      OFFSET -4.7889 3.8598 0.8608
      CHANNELS 6 Xposition Yposition Zposition Zrotation Xrotation Yrotation
      JOINT b_Tail002
      {
        OFFSET 4.2212 0.0000 -0.0000
        CHANNELS 6 Xposition Yposition Zposition Zrotation Xrotation Yrotation
        JOINT b_Tail003
        {
          OFFSET 4.9750 0.0000 -0.0000
          CHANNELS 6 Xposition Yposition Zposition Zrotation Xrotation Yrotation
          JOINT b_Tail004
          {
            OFFSET 4.7171 -0.0000 0.0000
            CHANNELS 6 Xposition Yposition Zposition Zrotation Xrotation Yrotation
            JOINT b_Tail005
            {
              OFFSET 9.7173 -0.0000 -0.0001
              CHANNELS 6 Xposition Yposition Zposition Zrotation Xrotation Yrotation
              JOINT b_Tail006
              {
                OFFSET 8.2617 0.0001 0.0000
                CHANNELS 6 Xposition Yposition Zposition Zrotation Xrotation Yrotation
                JOINT b_Tail007
                {
                  OFFSET 9.7599 -0.0001 0.0000
                  CHANNELS 6 Xposition Yposition Zposition Zrotation Xrotation Yrotation
                  JOINT b_Tail008
                  {
                    OFFSET 11.1530 0.0000 -0.0000
                    CHANNELS 6 Xposition Yposition Zposition Zrotation Xrotation Yrotation
                    JOINT b_Tail009
                    {
                      OFFSET 10.3039 0.0000 0.0000
                      CHANNELS 6 Xposition Yposition Zposition Zrotation Xrotation Yrotation
                      End Site
                      {
                        OFFSET 0 0 0
                      }
                    }
                  }
                }
              }
            }
          }
        }
      }
    }
    JOINT Dog_LeftTail001
    {
      OFFSET -11.9878 -1.7857 10.1900
      CHANNELS 6 Xposition Yposition Zposition Zrotation Xrotation Yrotation
      JOINT Dog_LeftTail002
      {
        OFFSET 8.4424 0.0000 0.0000
        CHANNELS 6 Xposition Yposition Zposition Zrotation Xrotation Yrotation
        JOINT Dog_LeftTail003
        {
          OFFSET 9.9501 0.0000 -0.0000
          CHANNELS 6 Xposition Yposition Zposition Zrotation Xrotation Yrotation
          JOINT Dog_LeftTail004
          {
            OFFSET 9.4342 0.0000 -0.0000
            CHANNELS 6 Xposition Yposition Zposition Zrotation Xrotation Yrotation
            JOINT Dog_LeftTail005
            {
              OFFSET 9.7173 0.0001 0.0001
              CHANNELS 6 Xposition Yposition Zposition Zrotation Xrotation Yrotation
              JOINT Dog_LeftTail006
              {
                OFFSET 8.2618 -0.0000 -0.0000
                CHANNELS 6 Xposition Yposition Zposition Zrotation Xrotation Yrotation
                JOINT Dog_LeftTail007
                {
                  OFFSET 9.7599 0.0000 0.0000
                  CHANNELS 6 Xposition Yposition Zposition Zrotation Xrotation Yrotation
                  JOINT Dog_LeftTail008
                  {
                    OFFSET 11.1529 -0.0001 -0.0001
                    CHANNELS 6 Xposition Yposition Zposition Zrotation Xrotation Yrotation
                    JOINT Dog_LeftTail009
                    {
                      OFFSET 10.3039 -0.0000 0.0000
                      CHANNELS 6 Xposition Yposition Zposition Zrotation Xrotation Yrotation
                      End Site
                      {
                        OFFSET 0 0 0
                      }
                    }
                  }
                }
              }
            }
          }
        }
      }
    }
    JOINT b_LeftLegUpper
    {
      OFFSET -0.0000 0.0000 9.9422
      CHANNELS 6 Xposition Yposition Zposition Zrotation Xrotation Yrotation
      JOINT b_LeftLeg
      {
        OFFSET 25.9795 0.0000 0.0000
        CHANNELS 6 Xposition Yposition Zposition Zrotation Xrotation Yrotation
        JOINT b_LeftLeg1
        {
          OFFSET 21.2087 0.0000 -0.0000
          CHANNELS 6 Xposition Yposition Zposition Zrotation Xrotation Yrotation
          JOINT b_LeftAnkle
          {
            OFFSET 10.4341 -0.0000 0.0000
            CHANNELS 6 Xposition Yposition Zposition Zrotation Xrotation Yrotation
            JOINT b_LeftToe
            {
              OFFSET 5.6676 6.5983 -0.0000
              CHANNELS 6 Xposition Yposition Zposition Zrotation Xrotation Yrotation
              JOINT Bip01_L_Toe0Nub
              {
                OFFSET 8.6279 -0.0000 0.0000
                CHANNELS 6 Xposition Yposition Zposition Zrotation Xrotation Yrotation
                End Site
                {
                  OFFSET 0 0 0
                }
              }
            }
            JOINT b_LeftToe002
            {
              OFFSET 5.6741 -2.3619 -0.5306
              CHANNELS 6 Xposition Yposition Zposition Zrotation Xrotation Yrotation
              End Site
              {
                OFFSET 0 0 0
              }
            }
          }
        }
      }
      JOINT Dog_LeftArmor001
      {
        OFFSET -2.6287 -3.4254 -3.1462
        CHANNELS 6 Xposition Yposition Zposition Zrotation Xrotation Yrotation
        End Site
        {
          OFFSET 0 0 0
        }
      }
    }
    JOINT b_RightLegUpper
    {
      OFFSET 0.0000 -0.0000 -9.9422
      CHANNELS 6 Xposition Yposition Zposition Zrotation Xrotation Yrotation
      JOINT b_RightLeg
      {
        OFFSET 25.9795 0.0000 0.0000
        CHANNELS 6 Xposition Yposition Zposition Zrotation Xrotation Yrotation
        JOINT b_RightLeg1
        {
          OFFSET 21.2087 0.0000 0.0000
          CHANNELS 6 Xposition Yposition Zposition Zrotation Xrotation Yrotation
          JOINT b_RightAnkle
          {
            OFFSET 10.4341 -0.0000 -0.0000
            CHANNELS 6 Xposition Yposition Zposition Zrotation Xrotation Yrotation
            JOINT b_RightToe
            {
              OFFSET 5.6676 6.5983 -0.0000
              CHANNELS 6 Xposition Yposition Zposition Zrotation Xrotation Yrotation
              JOINT Bip01_R_Toe0Nub
              {
                OFFSET 8.6279 -0.0000 0.0000
                CHANNELS 6 Xposition Yposition Zposition Zrotation Xrotation Yrotation
                End Site
                {
                  OFFSET 0 0 0
                }
              }
            }
            JOINT b_RightToe002
            {
              OFFSET 5.6741 -2.3620 0.5304
              CHANNELS 6 Xposition Yposition Zposition Zrotation Xrotation Yrotation
              End Site
              {
                OFFSET 0 0 0
              }
            }
          }
        }
      }
      JOINT Dog_RightArmor001
      {
        OFFSET -2.6288 -3.4254 3.1460
        CHANNELS 6 Xposition Yposition Zposition Zrotation Xrotation Yrotation
        End Site
        {
          OFFSET 0 0 0
        }
      }
    }
  }
}
MOTION
Frames: 4
Frame Time: 0.00833333
-48.0896 58.3596 135.992 94.5268 1.8464 -165.154 53.2821 -6.35e-05 8.19533 -90 -81.2558 -180 0 0 0 -89.9999 -1.62306e-14 -90 10.4409 -1.622 1.78e-05 -9.34953 -3.89336 -8.29085 8.8514 -0.0089989 0 1.10361 -2.99079 4.66371 11.3035 -0.0087814 0 -0.68035 3.58648 5.55931 11.0297 -0.0113029 0 -3.60195 0.169616 5.84793 14.948 -3.19349 8.6e-06 134.956 23.7133 161.326 5.49578 -0.0042877 1.06581e-14 -2.56214 -13.898 -11.3268 5.52657 -0.0048637 7.10543e-15 -1.47626 -6.78557 2.6708 6.10934 5.68434e-14 1.42109e-14 -43.037 6.32335 -16.1199 28.6688 0 7.10543e-15 9.93923e-16 -7.95139e-16 -3.18055e-15 0.607494 2.35752 -7.6e-06 -156.427 -0.000147608 180 10.4683 2.1257 3.51896 174.309 -2.94009 -116.096 7.34534 0 1.9e-06 105.277 -52.5981 -164.889 23.3863 -1.9e-06 1e-06 -24.3993 -0.0463185 -1.38453 21.504 0 0 -75.2178 -5.54999 2.03578 1.59262 6.21256 -0.0138378 5.68283 -10.088 0.232058 23.3657 0 1e-06 -3.18055e-15 -3.27995e-15 -1.59028e-15 4.20345 4.44573 12.7354 172.377 0.21838 -87.1877 10.4683 2.12572 -3.51895 -179.813 3.17906 78.7189 7.34534 0 -1.9e-06 -33.6922 65.7625 -59.263 23.3863 1.9e-06 7.10543e-15 -6.8539 2.38542e-15 -1.19271e-15 21.504 3.8e-06 1e-06 -72.6202 7.90256 2.11364 1.59262 6.21257 0.0138388 -10.5058 -8.80815 0.24863 23.3657 -3.55271e-15 1e-06 180 1.90833e-14 1.35174e-14 4.20337 4.4457 -12.7351 172.377 -0.218352 87.1876 -4.78895 3.85983 0.86083 157.115 7.16247 32.8447 4.22117 3.815e-05 -5.7e-06 -6.14065 -6.71807 -3.32579 4.97505 3.8e-06 -6.7e-06 -2.59217 6.78841 -1.25329 4.7171 -1.145e-05 2.86e-05 -3.18055e-15 -3.18055e-15 -0 9.71734 -4.2e-05 -5.72e-05 3.18055e-15 -1.59028e-15 -0 8.26175 8.01e-05 5.7e-06 8.82781e-32 -1.59028e-15 3.18055e-15 9.75986 -6.48e-05 2.86e-05 -0 0 -3.18055e-15 11.153 2.67e-05 -2.1e-05 8.82781e-32 -1.59028e-15 3.18055e-15 10.3039 1.14e-05 4.2e-05 1.59028e-15 -1.59028e-15 6.36111e-15 -11.9878 -1.78568 10.19 170.606 3.62573 1.11034 8.44238 1.53e-05 4.2e-05 2.34489e-32 -3.37934e-15 3.97569e-16 9.95005 7.6e-06 -2.86e-05 4.68978e-32 -3.37934e-15 7.95139e-16 9.43418 1.42109e-14 -4.58e-05 7.95139e-16 -1.49089e-16 7.95139e-16 9.71733 6.87e-05 0.0001106 2.38542e-15 -1.98785e-16 3.97569e-16 8.26175 -2.29e-05 -4.77e-05 1.59028e-15 -3.97569e-16 -3.97569e-16 9.75994 2.86e-05 3.05e-05 1.59028e-15 1.19271e-15 -3.97569e-16 11.1529 -7.25e-05 -5.91e-05 7.95139e-16 -4.47266e-16 -3.97569e-16 10.3039 -7.6e-06 0 -2.96559e-32 -2.13694e-15 -7.95139e-16 -1.14e-05 1.53e-05 9.94222 -121.849 0.529445 -176.888 25.9795 1e-06 0 -38.336 -0.282343 -1.17735 21.2087 1.9e-06 -1e-06 57.4009 5.18182 -11.6125 10.4341 -1.9e-06 1e-06 -8.81735 -2.36265 4.61913 5.66763 6.59832 -7.10543e-15 89.7445 16.1747 -7.53627 8.62785 7.10543e-15 0 -180 -8.88567e-14 -4.37326e-15 5.67414 -2.36194 -0.530567 -75.8081 4.38708 5.33411 -2.62874 -3.42539 -3.14618 29.7499 1.82752 90.2264 1.53e-05 -1.53e-05 -9.94222 -111.087 -27.199 172.489 25.9795 0 1e-06 -56.8316 -1.02855 2.38517 21.2087 -1.42109e-14 1.9e-06 59.8144 -18.7691 15.5756 10.4341 -1.9e-06 -1e-06 -16.5786 11.0094 -4.23585 5.66763 6.59831 -7.10543e-15 83.6662 -0.962453 -1.19557 8.62785 0 7.10543e-15 3.18055e-15 0 -0 5.67412 -2.36198 0.530355 -75.808 -4.38692 -5.33418 -2.62878 -3.42545 3.14601 29.7498 -1.82753 -90.2266
-48.2867 57.9537 134.572 95.0525 1.87754 -165.68 53.2821 -6.35e-05 8.19533 -90 -81.2558 -180 0 0 0 -89.9999 -4.1675e-14 -90 10.4409 -1.622 1.78e-05 -9.53833 -3.89717 -8.4555 8.8514 -0.0089989 -1.42109e-14 1.35821 -3.06221 4.89869 11.3035 -0.0087814 0 -0.382121 3.69244 5.71544 11.0297 -0.0113029 7.10543e-15 -3.72329 0.148779 5.91077 14.948 -3.19349 8.6e-06 134.762 23.7924 161.414 5.49578 -0.0042877 7.10543e-15 -3.04024 -13.5773 -10.9714 5.52657 -0.0048637 7.10543e-15 -1.53738 -6.48078 2.74459 6.10934 7.10543e-14 1.42109e-14 -43.613 6.41694 -15.9727 28.6688 0 0 1.49089e-15 -1.59028e-15 -0 0.607494 2.35752 -7.6e-06 -156.427 -0.000147608 180 10.4683 2.1257 3.51896 174.416 -2.75793 -117.256 7.34534 7.10543e-15 1.9e-06 106.427 -53.9505 -165.273 23.3863 -1.9e-06 1e-06 -21.9361 -0.10579 -1.38126 21.504 7.10543e-15 0 -74.6214 -5.52859 2.09335 1.59262 6.21256 -0.0138378 4.36343 -7.60206 0.214603 23.3657 0 1e-06 -0 -9.93923e-16 -0 4.20345 4.44573 12.7354 172.377 0.21838 -87.1877 10.4683 2.12572 -3.51895 -179.104 3.22404 79.3778 7.34534 -7.10543e-15 -1.9e-06 -32.3985 66.0248 -61.1183 23.3863 1.9e-06 -3.55271e-15 -8.92538 7.95139e-16 -1.39149e-15 21.504 3.8e-06 1e-06 -62.191 7.52763 2.63705 1.59262 6.21257 0.0138388 -10.3662 -7.34259 0.118931 23.3657 0 1e-06 180 6.91771e-14 -6.36111e-15 4.20337 4.4457 -12.7351 172.377 -0.218352 87.1876 -4.78895 3.85983 0.86083 157.549 6.62797 31.789 4.22117 3.815e-05 -5.7e-06 -5.99328 -2.20127 -6.28004 4.97505 3.8e-06 -6.7e-06 -2.34581 6.86732 -1.25581 4.7171 -1.145e-05 2.86e-05 3.53113e-31 6.36111e-15 -3.18055e-15 9.71734 -4.2e-05 -5.72e-05 -3.18055e-15 2.38542e-15 -3.18055e-15 8.26175 8.01e-05 5.7e-06 -0 6.36111e-15 -0 9.75986 -6.48e-05 2.86e-05 -8.82781e-32 -1.59028e-15 -3.18055e-15 11.153 2.67e-05 -2.1e-05 -0 3.97569e-15 -0 10.3039 1.14e-05 4.2e-05 -0 -3.97569e-15 -0 -11.9878 -1.78568 10.19 170.606 3.62573 1.11034 8.44238 1.53e-05 4.2e-05 -3.10353e-33 4.47266e-16 3.97569e-16 9.95005 7.6e-06 -2.86e-05 1.51728e-32 -1.09332e-15 7.95139e-16 9.43418 0 -4.58e-05 3.44836e-33 4.96962e-16 -3.97569e-16 9.71733 6.87e-05 0.0001106 7.95139e-16 6.4605e-16 -0 8.26175 -2.29e-05 -4.77e-05 -1.58625e-32 2.28602e-15 3.97569e-16 9.75994 2.86e-05 3.05e-05 -5.24151e-32 3.77691e-15 7.95139e-16 11.1529 -7.25e-05 -5.91e-05 7.95139e-16 -9.93923e-16 -3.97569e-16 10.3039 -7.6e-06 7.10543e-15 7.95139e-16 6.95746e-16 -7.95139e-16 -1.14e-05 1.53e-05 9.94222 -120.312 0.751259 -176.374 25.9795 1e-06 -1.42109e-14 -40.249 -0.242878 -1.18611 21.2087 1.9e-06 -1e-06 60.5988 5.10168 -11.6377 10.4341 -1.9e-06 1e-06 -8.4796 -2.33534 4.63298 5.66763 6.59832 -7.10543e-15 89.2246 15.6948 -7.13606 8.62785 0 0 -180 -2.43511e-14 -1.98785e-15 5.67414 -2.36194 -0.530567 -75.8081 4.38708 5.33411 -2.62874 -3.42539 -3.14618 29.7499 1.82752 90.2264 1.53e-05 -1.53e-05 -9.94222 -113.947 -27.0981 171.904 25.9795 0 1e-06 -61.2433 -1.20904 2.29899 21.2087 -1.42109e-14 1.9e-06 67.2748 -17.8192 16.9969 10.4341 -1.9e-06 -1e-06 -16.7593 7.29863 -5.16247 5.66763 6.59831 7.10543e-15 82.1152 0.224373 -1.71906 8.62785 7.10543e-15 -7.10543e-15 1.59028e-15 -7.95139e-16 1.59028e-15 5.67412 -2.36198 0.530356 -75.808 -4.38692 -5.33418 -2.62878 -3.42545 3.14601 29.7498 -1.82753 -90.2266
-48.5324 57.5362 133.143 95.5387 1.72314 -165.968 53.2821 -6.35e-05 8.19533 -90 -81.2558 -180 0 0 0 -89.9999 -4.1675e-14 -90 10.4409 -1.622 1.78e-05 -9.8573 -4.02475 -8.65608 8.8514 -0.0089989 0 1.42603 -3.13028 5.03592 11.3035 -0.0087814 -1.42109e-14 -0.178018 3.85566 5.83961 11.0297 -0.0113029 -7.10543e-15 -3.75356 0.182701 5.94827 14.948 -3.19349 8.6e-06 134.845 23.8145 161.62 5.49578 -0.0042877 7.10543e-15 -3.34011 -13.1797 -10.8127 5.52657 -0.0048637 7.10543e-15 -1.57458 -6.20747 2.80566 6.10934 7.10543e-14 2.84217e-14 -44.1089 6.5 -15.8239 28.6688 -1.42109e-14 7.10543e-15 1.19271e-15 -3.97569e-16 -3.18055e-15 0.607494 2.35752 -7.6e-06 -156.427 -0.000147608 180 10.4683 2.1257 3.51896 174.528 -2.69325 -117.833 7.34534 7.10543e-15 1.9e-06 107.395 -57.1083 -165.557 23.3863 -1.9e-06 1e-06 -19.4853 -0.164771 -1.37547 21.504 0 -7.10543e-15 -75.2747 -5.552 2.03028 1.59262 6.21256 -0.0138378 2.35146 -4.42229 0.447232 23.3657 0 1e-06 -6.62086e-32 -2.38542e-15 -1.59028e-15 4.20345 4.44573 12.7354 172.377 0.21838 -87.1877 10.4683 2.12572 -3.51895 -178.501 3.19387 79.8439 7.34534 0 -1.9e-06 -31.4711 66.3328 -62.4121 23.3863 1.9e-06 3.55271e-15 -11.0228 -7.95139e-16 1.98785e-16 21.504 3.8e-06 1e-06 -50.6153 7.35111 3.1746 1.59262 6.21257 0.0138388 -8.26755 -4.78273 -0.125303 23.3657 0 1e-06 180 1.66979e-14 -5.56597e-15 4.20337 4.4457 -12.7351 172.377 -0.218352 87.1876 -4.78895 3.85983 0.86083 158.264 6.23668 30.676 4.22117 3.815e-05 -5.7e-06 -5.50772 1.96495 -9.47531 4.97505 3.8e-06 -6.7e-06 -2.32768 6.94073 -1.302 4.7171 -1.145e-05 2.86e-05 -6.36111e-15 7.95139e-16 -6.36111e-15 9.71734 -4.2e-05 -5.72e-05 6.36111e-15 1.59028e-15 3.18055e-15 8.26175 8.01e-05 5.7e-06 3.18055e-15 0 -0 9.75986 -6.48e-05 2.86e-05 -0 -3.18055e-15 -0 11.153 2.67e-05 -2.1e-05 -4.41391e-32 7.95139e-16 3.18055e-15 10.3039 1.14e-05 4.2e-05 3.18055e-15 -1.59028e-15 1.27222e-14 -11.9878 -1.78568 10.19 170.606 3.62573 1.11034 8.44238 1.53e-05 4.2e-05 -4.82771e-33 -3.47873e-16 -7.95139e-16 9.95005 7.6e-06 -2.86e-05 7.95139e-16 -2.98177e-16 -3.97569e-16 9.43418 -7.10543e-15 -4.58e-05 -4.13804e-33 -2.98177e-16 -7.95139e-16 9.71733 6.87e-05 0.0001106 -1.31038e-32 -1.88845e-15 -3.97569e-16 8.26175 -2.29e-05 -4.77e-05 -7.95139e-16 -1.98785e-16 -0 9.75994 2.86e-05 3.05e-05 -7.95139e-16 -1.73937e-15 3.97569e-16 11.1529 -7.25e-05 -5.91e-05 -7.95139e-16 -1.78906e-15 -0 10.3039 -7.6e-06 0 -6.89673e-34 -9.93923e-17 -3.97569e-16 -1.14e-05 1.53e-05 9.94222 -118.985 1.84049 -175.774 25.9795 1e-06 0 -41.9898 -0.206729 -1.19295 21.2087 1.9e-06 -1e-06 63.5618 5.70101 -11.9794 10.4341 -1.9e-06 1e-06 -8.26528 -2.31797 4.64168 5.66763 6.59832 -7.10543e-15 88.6999 15.6002 -7.24204 8.62785 0 0 -180 -1.16289e-14 -1.59028e-15 5.67414 -2.36194 -0.530567 -75.8081 4.38708 5.33411 -2.62874 -3.42539 -3.14618 29.7499 1.82752 90.2264 1.53e-05 -1.53e-05 -9.94222 -117.134 -26.8114 171.389 25.9795 0 1e-06 -64.7215 -1.34632 2.22141 21.2087 0 1.9e-06 74.6933 -17.0724 18.9526 10.4341 -1.9e-06 -1e-06 -17.1122 2.12523 -6.27948 5.66763 6.59831 3.55271e-15 81.8406 1.12245 -1.55555 8.62785 -1.77636e-15 -7.10543e-15 -7.95139e-16 0 -0 5.67412 -2.36198 0.530356 -75.808 -4.38692 -5.33418 -2.62878 -3.42545 3.14601 29.7498 -1.82753 -90.2266
-48.804 57.117 131.701 95.9657 1.46232 -166.092 53.2821 -6.35e-05 8.19533 -90 -81.2558 -180 0 0 0 -89.9999 -4.1675e-14 -90 10.4409 -1.622 1.78e-05 -10.2455 -4.25012 -8.86755 8.8514 -0.0089989 0 1.36774 -3.15715 5.11608 11.3035 -0.0087814 0 -0.0499298 4.07702 5.91841 11.0297 -0.0113029 0 -3.70045 0.281193 5.95134 14.948 -3.19349 8.6e-06 135.124 23.8085 161.921 5.49578 -0.0042877 1.42109e-14 -3.49748 -12.8114 -10.8161 5.52657 -0.0048637 0 -1.58967 -6.00528 2.84934 6.10934 7.10543e-14 7.10543e-15 -44.4638 6.57349 -15.7467 28.6688 1.42109e-14 7.10543e-15 -1.88845e-15 3.97569e-16 -0 0.607494 2.35752 -7.6e-06 -156.427 -0.000147608 180 10.4683 2.1257 3.51896 174.768 -2.79019 -117.955 7.34534 -7.10543e-15 1.9e-06 107.832 -60.6051 -165.676 23.3863 -1.9e-06 1e-06 -16.8863 -0.226983 -1.36658 21.504 0 7.10543e-15 -79.2476 -5.67878 1.64137 1.59262 6.21256 -0.0138378 0.108707 -3.48406 0.0930312 23.3657 0 1e-06 -3.18055e-15 3.18055e-15 1.59028e-15 4.20345 4.44573 12.7354 172.377 0.21838 -87.1877 10.4683 2.12572 -3.51895 -178.089 3.20714 80.2583 7.34534 0 -1.9e-06 -30.8264 66.4059 -63.3109 23.3863 1.9e-06 1.42109e-14 -13.3398 1.59028e-15 -1.98785e-16 21.504 3.8e-06 1e-06 -38.8815 7.4064 3.91199 1.59262 6.21257 0.0138388 -5.03942 -1.76063 -0.531031 23.3657 0 1e-06 180 1.59028e-15 1.27222e-14 4.20337 4.4457 -12.7351 172.377 -0.218352 87.1876 -4.78895 3.85983 0.86083 159.378 6.08155 29.4153 4.22117 3.815e-05 -5.7e-06 -4.7336 5.03284 -12.8307 4.97505 3.8e-06 -6.7e-06 -2.44298 6.95733 -1.45072 4.7171 -1.145e-05 2.86e-05 -1.32417e-31 4.77083e-15 1.59028e-15 9.71734 -4.2e-05 -5.72e-05 6.36111e-15 -7.95139e-16 -0 8.26175 8.01e-05 5.7e-06 3.18055e-15 -7.95139e-16 -1.59028e-15 9.75986 -6.48e-05 2.86e-05 3.18055e-15 2.38542e-15 3.18055e-15 11.153 2.67e-05 -2.1e-05 -6.36111e-15 -1.59028e-15 3.18055e-15 10.3039 1.14e-05 4.2e-05 -3.18055e-15 2.38542e-15 6.36111e-15 -11.9878 -1.78568 10.19 170.606 3.62573 1.11034 8.44238 1.53e-05 4.2e-05 -7.95139e-16 -1.71452e-15 3.97569e-16 9.95005 7.6e-06 -2.86e-05 -2.41386e-33 -1.73937e-16 -7.95139e-16 9.43418 -7.10543e-15 -4.58e-05 -7.95139e-16 -1.66482e-15 3.97569e-16 9.71733 6.87e-05 0.0001106 -7.95139e-16 -1.66482e-15 3.97569e-16 8.26175 -2.29e-05 -4.77e-05 -7.95139e-16 -1.66482e-15 3.97569e-16 9.75994 2.86e-05 3.05e-05 -7.95139e-16 -1.66482e-15 3.97569e-16 11.1529 -7.25e-05 -5.91e-05 -7.95139e-16 -1.66482e-15 3.97569e-16 10.3039 -7.6e-06 7.10543e-15 -7.95139e-16 -1.66482e-15 3.97569e-16 -1.14e-05 1.53e-05 9.94222 -117.797 3.3129 -175.211 25.9795 1e-06 0 -43.5378 -0.174421 -1.19809 21.2087 1.9e-06 -1e-06 65.9516 6.34667 -12.3328 10.4341 -1.9e-06 1e-06 -8.40703 -2.32946 4.63593 5.66763 6.59832 7.10543e-15 87.7705 15.5233 -7.4026 8.62785 0 0 -180 -8.44835e-15 4.96962e-15 5.67414 -2.36194 -0.530567 -75.8081 4.38708 5.33411 -2.62874 -3.42539 -3.14618 29.7499 1.82752 90.2264 1.53e-05 -1.53e-05 -9.94222 -120.463 -26.7359 170.924 25.9795 0 1e-06 -66.9293 -1.43092 2.1679 21.2087 0 1.9e-06 80.8343 -15.8188 21.0581 10.4341 -1.9e-06 -1e-06 -18.2772 -0.691421 -6.96208 5.66763 6.59831 -3.55271e-15 82.1849 1.97894 -1.63143 8.62785 1.77636e-15 -3.55271e-15 -3.97569e-16 4.47266e-16 -7.95139e-16 5.67412 -2.36198 0.530355 -75.808 -4.38692 -5.33418 -2.62878 -3.42545 3.14601 29.7498 -1.82753 -90.2266
